<svg xmlns="http://www.w3.org/2000/svg" xmlns:xlink="http://www.w3.org/1999/xlink" width="200" height="42" viewBox="0 0 200 42">
    <defs>
        <path id="prefix__a" d="M0 0L38.656 0 38.656 40.895 0 40.895z"/>
        <path id="prefix__c" d="M0 41.763L184.53 41.763 184.53 0.868 0 0.868z"/>
    </defs>
    <g fill="none" fill-rule="evenodd" transform="translate(7.735)">
        <g transform="translate(0 .868)">
            <mask id="prefix__b" fill="#fff">
                <use xlink:href="#prefix__a"/>
            </mask>
            <path fill="#AFADAD" d="M28.856 22c-1.18.593-2.58.894-4.158.894-1.58 0-2.978-.3-4.158-.894-1.094-.55-1.91-1.282-2.497-2.24-.582-.95-.865-2.034-.865-3.313V6.7l4.3.003v3.22c0 1.576.395 3.019 1.172 4.288.774 1.264 1.855 2.25 3.213 2.934 1.257.631 2.672.952 4.204.952.696 0 1.368-.067 2.011-.198-.137.676-.378 1.293-.726 1.862-.586.957-1.403 1.69-2.496 2.24zm1.817 6.82c-1.043 1.704-2.483 3-4.4 3.964-1.992 1.002-4.328 1.51-6.945 1.51-2.616 0-4.953-.508-6.945-1.51-1.918-.964-3.356-2.26-4.4-3.965-1.039-1.696-1.544-3.608-1.544-5.846V6.698h4.3v9.75c0 2.522.623 4.817 1.85 6.822 1.225 2 2.946 3.567 5.116 4.658 2.07 1.04 4.422 1.568 6.993 1.568 2.287 0 4.401-.418 6.298-1.243-.101.192-.21.38-.323.567zM27.917 6.706l4.3-.001v3.217c0 .42-.1.638-.186.78-.09.145-.238.336-.593.515-.373.187-.821.278-1.37.278-.55 0-.998-.09-1.371-.278-.356-.179-.504-.37-.594-.516-.086-.142-.186-.358-.186-.779V6.706zM0 .096v22.877c0 3.468.851 6.616 2.53 9.356 1.674 2.736 4.036 4.884 7.019 6.383 2.881 1.448 6.171 2.183 9.78 2.183 3.606 0 6.896-.735 9.779-2.183 2.982-1.5 5.343-3.647 7.019-6.382 1.678-2.742 2.53-5.89 2.53-9.357V0L0 .096z" mask="url(#prefix__b)"/>
        </g>
        <path fill="#1A1F36" d="M68.156 27.807h-.114c.038.156-2.545 3.053-7.103 2.897-5.203 0-7.9-2.193-7.9-6.734V10.815h9.268v11.197c0 1.84.683 2.74 2.506 2.74 2.014 0 3.267-1.174 3.267-3.836v-10.1h9.268v19.34h-9.192v-2.35zM98.806 19.837c0-1.966-.856-2.853-2.876-2.853-2.176 0-3.575 1.272-3.575 4.01v9.716h-9.482V4.184h9.482V13.9h.077c0-.27 3.07-2.776 7.695-2.776 5.44 0 8.16 2.197 8.16 6.631V30.71h-9.481V19.837zM122.407 18.209h7.198v-.229c0-1.562-1.135-2.744-3.52-2.744-2.27 0-3.482.991-3.678 2.973zm.079 4.497c0 1.83 1.447 2.897 4.146 2.897 2.503 0 3.755-.8 4.224-1.982l8.37 1.524c-.82 2.21-4.732 5.565-12.672 5.565-8.762 0-13.847-3.316-13.847-9.91 0-6.67 5.28-9.985 13.455-9.985 8.293 0 13.065 3.392 13.065 10.367v1.296h-16.741v.228z"/>
        <mask id="prefix__d" fill="#fff">
            <use xlink:href="#prefix__c"/>
        </mask>
        <path fill="#1A1F36" d="M142.541 30.71L151.381 30.71 151.381 4.184 142.541 4.184zM174.95 20.932c0-2.839-1.303-4.589-3.91-4.589-2.567 0-3.755 1.984-3.755 4.122v.934c0 2.294 1.112 4.121 3.602 4.121 2.606 0 4.063-1.788 4.063-4.588zm-16.939-9.566h9.274v2.178h.077c0-.195 2.567-2.878 7.281-2.722 5.863 0 9.887 3.422 9.887 10.11 0 6.571-4.407 10.188-10.347 10.188-4.33.155-6.745-2.45-6.745-2.644h-.076v8.866h-9.35V11.366z" mask="url(#prefix__d)"/>
    </g>
</svg>
