<svg xmlns="http://www.w3.org/2000/svg" viewBox="0 0 68 68"><defs><style>.cls-1{fill:#fff;}.cls-2{fill:#4caf50;}</style></defs><g id="Livello_2" data-name="Livello 2"><g id="Livello_1-2" data-name="Livello 1"><path class="cls-1" d="M58.14,9.77A34.42,34.42,0,0,0,34.13,0C8.15,0-8.17,28.15,4.81,50.54L0,68l18-4.68c7.82,4.22,14.22,3.85,16.19,4.1,30.13,0,45.12-36.45,24-57.54Z"/><path class="cls-2" d="M34.19,61.62h-.06a28.67,28.67,0,0,1-15.35-4.51L8.16,59.87,11,49.54l-.68-1.06A27.94,27.94,0,0,1,6,33.58C6,8.66,36.48-3.79,54.09,13.81,71.67,31.24,59.33,61.62,34.19,61.62Z"/><path class="cls-1" d="M49.6,40.53l0,.22c-.86-.43-5-2.46-5.78-2.74-1.74-.64-1.25-.1-4.59,3.72-.49.55-1,.59-1.83.21a23.15,23.15,0,0,1-6.8-4.21,25.67,25.67,0,0,1-4.71-5.86c-.83-1.44.91-1.64,2.49-4.63a1.58,1.58,0,0,0-.07-1.49c-.21-.42-1.9-4.59-2.61-6.25s-1.38-1.44-1.91-1.44c-1.63-.14-2.82-.12-3.87,1-4.58,5-3.42,10.21.49,15.73,7.69,10.06,11.79,11.91,19.28,14.49a11.73,11.73,0,0,0,5.32.34c1.63-.26,5-2,5.72-4a7.07,7.07,0,0,0,.51-4c-.21-.38-.77-.59-1.62-1Z"/></g></g></svg>